<?xml version="1.0" encoding="utf-8"?>
<!-- Generator: Adobe Illustrator 24.1.2, SVG Export Plug-In . SVG Version: 6.00 Build 0)  -->
<svg version="1.1" id="Слой_1" xmlns="http://www.w3.org/2000/svg" xmlns:xlink="http://www.w3.org/1999/xlink" x="0px" y="0px"
	 viewBox="0 0 64 64" style="enable-background:new 0 0 64 64;" xml:space="preserve">
<path d="M61.9,52c2.7,2.7,2.7,7.2,0,9.9c-1.4,1.4-3.2,2.1-5,2.1s-3.6-0.7-5-2.1l-20-20l-20,20c-2.7,2.7-7.2,2.7-9.9,0
	s-2.7-7.2,0-9.9l20-20l-20-20c-2.7-2.7-2.7-7.2,0-9.9C3.4,0.7,5.2,0,7,0s3.6,0.7,5,2.1l20,20l20-20c2.7-2.7,7.2-2.7,9.9,0
	C63.3,3.4,64,5.2,64,7s-0.7,3.6-2.1,5l-20,20L61.9,52z"/>
</svg>
