<svg id="Слой_1" data-name="Слой 1" xmlns="http://www.w3.org/2000/svg" width="21.0002" height="21.5269" viewBox="0 0 21.0002 21.5269"><path d="M16,22.7764a.75.75,0,0,1-.75-.75V19.1572a2.7272,2.7272,0,0,0-.1445-1.1513,2.6138,2.6138,0,0,0-.585-.9375.75.75,0,0,1,.4561-1.2666c2.8545-.3184,5.7734-1.31,5.7734-6.2549A4.6683,4.6683,0,0,0,19.457,6.314a.7487.7487,0,0,1-.1591-.7793,4.295,4.295,0,0,0,.0849-2.77A7.5941,7.5941,0,0,0,16.418,4.13a.7606.7606,0,0,1-.6143.1011,12.6366,12.6366,0,0,0-6.6074,0A.7588.7588,0,0,1,8.5825,4.13,7.4951,7.4951,0,0,0,5.6157,2.77a4.2971,4.2971,0,0,0,.0869,2.7647.7488.7488,0,0,1-.16.7793A4.6708,4.6708,0,0,0,4.25,9.5728c0,4.87,2.7793,5.8862,5.7827,6.26a.75.75,0,0,1,.4458,1.2656,2.6208,2.6208,0,0,0-.7305,2.0059l.002,2.9219a.75.75,0,0,1-1.5,0V19.1572a4.1118,4.1118,0,0,1,.4014-2.0283C5.8394,16.5557,2.75,14.9482,2.75,9.5767A6.1556,6.1556,0,0,1,4.1533,5.6226,5.791,5.791,0,0,1,4.4,1.7314a.75.75,0,0,1,.4761-.4238c.2446-.0732,1.5717-.3345,4.2573,1.39a14.1409,14.1409,0,0,1,6.7324,0c2.6875-1.7242,4.0147-1.4624,4.2568-1.39a.7511.7511,0,0,1,.4766.4238,5.7964,5.7964,0,0,1,.2471,3.8912A6.1578,6.1578,0,0,1,22.25,9.5469c0,5.4336-3.083,7.0215-5.8945,7.5644q.0892.1875.1611.3858a4.1055,4.1055,0,0,1,.2314,1.7187l.002,2.8106A.75.75,0,0,1,16,22.7764Z" transform="translate(-1.2498 -1.2495)"/><path d="M6.8838,21.1348a6.1077,6.1077,0,0,1-5.5547-3.7735.75.75,0,1,1,1.3418-.67c1.2944,2.5889,3.4023,3.4961,6.0977,2.6221a.75.75,0,1,1,.4628,1.4258A7.5849,7.5849,0,0,1,6.8838,21.1348Z" transform="translate(-1.2498 -1.2495)"/></svg>